<svg width="24" height="24" viewBox="0 0 24 24" fill="none" xmlns="http://www.w3.org/2000/svg">
<path d="M22.0642 12.2237C22.0642 11.3964 21.9957 10.7926 21.8474 10.1665H12.207V13.9008H17.8657C17.7517 14.8288 17.1356 16.2264 15.7665 17.1655L15.7473 17.2905L18.7954 19.6046L19.0066 19.6253C20.9461 17.8699 22.0642 15.2872 22.0642 12.2237Z" fill="#4285F4"/>
<path d="M12.2058 22.0627C14.9781 22.0627 17.3054 21.1682 19.0054 19.6253L15.7653 17.1655C14.8983 17.7581 13.7345 18.1717 12.2058 18.1717C9.49056 18.1717 7.18603 16.4164 6.36452 13.9902L6.24411 14.0003L3.07465 16.4041L3.0332 16.517C4.72167 19.8041 8.18992 22.0627 12.2058 22.0627Z" fill="#34A853"/>
<path d="M6.36599 13.9902C6.14923 13.3641 6.02378 12.6932 6.02378 12C6.02378 11.3068 6.14923 10.636 6.35459 10.0099L6.34885 9.87652L3.13966 7.43408L3.03466 7.48303C2.33876 8.84707 1.93945 10.3788 1.93945 12C1.93945 13.6212 2.33876 15.1529 3.03466 16.5169L6.36599 13.9902Z" fill="#FBBC05"/>
<path d="M12.2059 5.82831C14.1339 5.82831 15.4345 6.64448 16.1761 7.32654L19.0739 4.55375C17.2942 2.93257 14.9782 1.9375 12.2059 1.9375C8.18995 1.9375 4.72168 4.19595 3.0332 7.48301L6.35314 10.0099C7.18605 7.58368 9.4906 5.82831 12.2059 5.82831Z" fill="#EB4335"/>
</svg>
